<mxfile host="app.diagrams.net" modified="2023-09-21T15:10:20.882Z" agent="Mozilla/5.0 (Macintosh; Intel Mac OS X 10_15_7) AppleWebKit/537.36 (KHTML, like Gecko) Chrome/116.0.0.0 Safari/537.36" etag="0sX3QBhmomrV6bbRGsuG" version="21.8.0" type="device">
  <diagram name="Page-1" id="-PFd2on5GRDgNI3Ip_sS">
    <mxGraphModel dx="859" dy="812" grid="1" gridSize="10" guides="1" tooltips="1" connect="1" arrows="1" fold="1" page="1" pageScale="1" pageWidth="827" pageHeight="1169" math="0" shadow="0">
      <root>
        <mxCell id="0" />
        <mxCell id="1" parent="0" />
        <mxCell id="LaQjqhQ_21X8FqnboEd2-6" value="" style="edgeStyle=orthogonalEdgeStyle;rounded=0;orthogonalLoop=1;jettySize=auto;html=1;exitX=0.25;exitY=1;exitDx=0;exitDy=0;entryX=0.5;entryY=0;entryDx=0;entryDy=0;" edge="1" parent="1" source="LaQjqhQ_21X8FqnboEd2-2" target="LaQjqhQ_21X8FqnboEd2-4">
          <mxGeometry relative="1" as="geometry" />
        </mxCell>
        <mxCell id="LaQjqhQ_21X8FqnboEd2-7" style="edgeStyle=orthogonalEdgeStyle;rounded=0;orthogonalLoop=1;jettySize=auto;html=1;exitX=0.5;exitY=1;exitDx=0;exitDy=0;entryX=0.5;entryY=0;entryDx=0;entryDy=0;" edge="1" parent="1" source="LaQjqhQ_21X8FqnboEd2-2" target="LaQjqhQ_21X8FqnboEd2-3">
          <mxGeometry relative="1" as="geometry" />
        </mxCell>
        <mxCell id="LaQjqhQ_21X8FqnboEd2-2" value="CTk Frontend" style="shape=internalStorage;whiteSpace=wrap;html=1;backgroundOutline=1;" vertex="1" parent="1">
          <mxGeometry x="200" y="150" width="160" height="90" as="geometry" />
        </mxCell>
        <mxCell id="LaQjqhQ_21X8FqnboEd2-3" value="ClamAV:&lt;br&gt;clamscan" style="rounded=1;whiteSpace=wrap;html=1;" vertex="1" parent="1">
          <mxGeometry x="220" y="280" width="120" height="60" as="geometry" />
        </mxCell>
        <mxCell id="LaQjqhQ_21X8FqnboEd2-4" value="ClamAV:&lt;br&gt;freeshclam" style="rounded=1;whiteSpace=wrap;html=1;" vertex="1" parent="1">
          <mxGeometry x="90" y="280" width="120" height="60" as="geometry" />
        </mxCell>
        <mxCell id="LaQjqhQ_21X8FqnboEd2-5" value="ClamAV:&lt;br&gt;config files" style="shape=note;whiteSpace=wrap;html=1;backgroundOutline=1;darkOpacity=0.05;" vertex="1" parent="1">
          <mxGeometry x="360" y="280" width="80" height="60" as="geometry" />
        </mxCell>
        <mxCell id="LaQjqhQ_21X8FqnboEd2-8" style="edgeStyle=orthogonalEdgeStyle;rounded=0;orthogonalLoop=1;jettySize=auto;html=1;exitX=0.75;exitY=1;exitDx=0;exitDy=0;entryX=0.5;entryY=0;entryDx=0;entryDy=0;entryPerimeter=0;" edge="1" parent="1" source="LaQjqhQ_21X8FqnboEd2-2" target="LaQjqhQ_21X8FqnboEd2-5">
          <mxGeometry relative="1" as="geometry" />
        </mxCell>
      </root>
    </mxGraphModel>
  </diagram>
</mxfile>
